# xmcd
#
# Track frame offsets:
#	150
#	23107
#	41290
#
# Disc length: 745 seconds
# Revision: 0
# Processed by: cddbd v1.5.2PL0 Copyright (c) Steve Scherf et al.
# Submitted via: dBpowerAMP V12.0
#
DISCID=1702e703
DTITLE=Mordred - Falling Away
DYEAR=1991
DGENRE=Metal
TTITLE0=Falling Away
TTITLE1=Lion's Den
TTITLE2=Johnny The Fox Meets Jimmy The Weed
EXTD=
EXTT0=
EXTT1=
EXTT2=
PLAYORDER=
